<svg id="dots-pricing-left" xmlns="http://www.w3.org/2000/svg" width="167" height="201" viewBox="0 0 167 201">
  <path id="Tracé_21" data-name="Tracé 21" d="M77,47a77,77,0,0,0,0,154" fill="#ffa5bc"/>
  <g id="Groupe_60" data-name="Groupe 60">
    <circle id="Ellipse_249" data-name="Ellipse 249" cx="2" cy="2" r="2" transform="translate(13)" fill="#61c3d6"/>
    <circle id="Ellipse_250" data-name="Ellipse 250" cx="2" cy="2" r="2" transform="translate(23)" fill="#61c3d6"/>
    <circle id="Ellipse_251" data-name="Ellipse 251" cx="2" cy="2" r="2" transform="translate(33)" fill="#61c3d6"/>
    <circle id="Ellipse_252" data-name="Ellipse 252" cx="2" cy="2" r="2" transform="translate(43)" fill="#61c3d6"/>
    <circle id="Ellipse_253" data-name="Ellipse 253" cx="2" cy="2" r="2" transform="translate(53)" fill="#61c3d6"/>
    <circle id="Ellipse_254" data-name="Ellipse 254" cx="2" cy="2" r="2" transform="translate(63)" fill="#61c3d6"/>
    <circle id="Ellipse_255" data-name="Ellipse 255" cx="2" cy="2" r="2" transform="translate(73)" fill="#61c3d6"/>
    <circle id="Ellipse_256" data-name="Ellipse 256" cx="2" cy="2" r="2" transform="translate(83)" fill="#61c3d6"/>
    <circle id="Ellipse_257" data-name="Ellipse 257" cx="2" cy="2" r="2" transform="translate(93)" fill="#61c3d6"/>
    <circle id="Ellipse_258" data-name="Ellipse 258" cx="2" cy="2" r="2" transform="translate(103)" fill="#61c3d6"/>
    <circle id="Ellipse_259" data-name="Ellipse 259" cx="2" cy="2" r="2" transform="translate(113)" fill="#61c3d6"/>
    <circle id="Ellipse_260" data-name="Ellipse 260" cx="2" cy="2" r="2" transform="translate(123)" fill="#61c3d6"/>
    <circle id="Ellipse_261" data-name="Ellipse 261" cx="2" cy="2" r="2" transform="translate(133)" fill="#61c3d6"/>
    <circle id="Ellipse_262" data-name="Ellipse 262" cx="2" cy="2" r="2" transform="translate(143)" fill="#61c3d6"/>
    <circle id="Ellipse_263" data-name="Ellipse 263" cx="2" cy="2" r="2" transform="translate(153)" fill="#61c3d6"/>
    <circle id="Ellipse_264" data-name="Ellipse 264" cx="2" cy="2" r="2" transform="translate(163)" fill="#61c3d6"/>
    <circle id="Ellipse_265" data-name="Ellipse 265" cx="2" cy="2" r="2" transform="translate(13 10)" fill="#61c3d6"/>
    <circle id="Ellipse_266" data-name="Ellipse 266" cx="2" cy="2" r="2" transform="translate(23 10)" fill="#61c3d6"/>
    <circle id="Ellipse_267" data-name="Ellipse 267" cx="2" cy="2" r="2" transform="translate(33 10)" fill="#61c3d6"/>
    <circle id="Ellipse_268" data-name="Ellipse 268" cx="2" cy="2" r="2" transform="translate(43 10)" fill="#61c3d6"/>
    <circle id="Ellipse_269" data-name="Ellipse 269" cx="2" cy="2" r="2" transform="translate(53 10)" fill="#61c3d6"/>
    <circle id="Ellipse_270" data-name="Ellipse 270" cx="2" cy="2" r="2" transform="translate(63 10)" fill="#61c3d6"/>
    <circle id="Ellipse_271" data-name="Ellipse 271" cx="2" cy="2" r="2" transform="translate(73 10)" fill="#61c3d6"/>
    <circle id="Ellipse_272" data-name="Ellipse 272" cx="2" cy="2" r="2" transform="translate(83 10)" fill="#61c3d6"/>
    <circle id="Ellipse_273" data-name="Ellipse 273" cx="2" cy="2" r="2" transform="translate(93 10)" fill="#61c3d6"/>
    <circle id="Ellipse_274" data-name="Ellipse 274" cx="2" cy="2" r="2" transform="translate(103 10)" fill="#61c3d6"/>
    <circle id="Ellipse_275" data-name="Ellipse 275" cx="2" cy="2" r="2" transform="translate(113 10)" fill="#61c3d6"/>
    <circle id="Ellipse_276" data-name="Ellipse 276" cx="2" cy="2" r="2" transform="translate(123 10)" fill="#61c3d6"/>
    <circle id="Ellipse_277" data-name="Ellipse 277" cx="2" cy="2" r="2" transform="translate(133 10)" fill="#61c3d6"/>
    <circle id="Ellipse_278" data-name="Ellipse 278" cx="2" cy="2" r="2" transform="translate(143 10)" fill="#61c3d6"/>
    <circle id="Ellipse_279" data-name="Ellipse 279" cx="2" cy="2" r="2" transform="translate(153 10)" fill="#61c3d6"/>
    <circle id="Ellipse_280" data-name="Ellipse 280" cx="2" cy="2" r="2" transform="translate(163 10)" fill="#61c3d6"/>
    <circle id="Ellipse_281" data-name="Ellipse 281" cx="2" cy="2" r="2" transform="translate(13 20)" fill="#61c3d6"/>
    <circle id="Ellipse_282" data-name="Ellipse 282" cx="2" cy="2" r="2" transform="translate(23 20)" fill="#61c3d6"/>
    <circle id="Ellipse_283" data-name="Ellipse 283" cx="2" cy="2" r="2" transform="translate(33 20)" fill="#61c3d6"/>
    <circle id="Ellipse_284" data-name="Ellipse 284" cx="2" cy="2" r="2" transform="translate(43 20)" fill="#61c3d6"/>
    <circle id="Ellipse_285" data-name="Ellipse 285" cx="2" cy="2" r="2" transform="translate(53 20)" fill="#61c3d6"/>
    <circle id="Ellipse_286" data-name="Ellipse 286" cx="2" cy="2" r="2" transform="translate(63 20)" fill="#61c3d6"/>
    <circle id="Ellipse_287" data-name="Ellipse 287" cx="2" cy="2" r="2" transform="translate(73 20)" fill="#61c3d6"/>
    <circle id="Ellipse_288" data-name="Ellipse 288" cx="2" cy="2" r="2" transform="translate(83 20)" fill="#61c3d6"/>
    <circle id="Ellipse_289" data-name="Ellipse 289" cx="2" cy="2" r="2" transform="translate(93 20)" fill="#61c3d6"/>
    <circle id="Ellipse_290" data-name="Ellipse 290" cx="2" cy="2" r="2" transform="translate(103 20)" fill="#61c3d6"/>
    <circle id="Ellipse_291" data-name="Ellipse 291" cx="2" cy="2" r="2" transform="translate(113 20)" fill="#61c3d6"/>
    <circle id="Ellipse_292" data-name="Ellipse 292" cx="2" cy="2" r="2" transform="translate(123 20)" fill="#61c3d6"/>
    <circle id="Ellipse_293" data-name="Ellipse 293" cx="2" cy="2" r="2" transform="translate(133 20)" fill="#61c3d6"/>
    <circle id="Ellipse_294" data-name="Ellipse 294" cx="2" cy="2" r="2" transform="translate(143 20)" fill="#61c3d6"/>
    <circle id="Ellipse_295" data-name="Ellipse 295" cx="2" cy="2" r="2" transform="translate(153 20)" fill="#61c3d6"/>
    <circle id="Ellipse_296" data-name="Ellipse 296" cx="2" cy="2" r="2" transform="translate(163 20)" fill="#61c3d6"/>
    <circle id="Ellipse_297" data-name="Ellipse 297" cx="2" cy="2" r="2" transform="translate(13 30)" fill="#61c3d6"/>
    <circle id="Ellipse_298" data-name="Ellipse 298" cx="2" cy="2" r="2" transform="translate(23 30)" fill="#61c3d6"/>
    <circle id="Ellipse_299" data-name="Ellipse 299" cx="2" cy="2" r="2" transform="translate(33 30)" fill="#61c3d6"/>
    <circle id="Ellipse_300" data-name="Ellipse 300" cx="2" cy="2" r="2" transform="translate(43 30)" fill="#61c3d6"/>
    <circle id="Ellipse_301" data-name="Ellipse 301" cx="2" cy="2" r="2" transform="translate(53 30)" fill="#61c3d6"/>
    <circle id="Ellipse_302" data-name="Ellipse 302" cx="2" cy="2" r="2" transform="translate(63 30)" fill="#61c3d6"/>
    <circle id="Ellipse_303" data-name="Ellipse 303" cx="2" cy="2" r="2" transform="translate(73 30)" fill="#61c3d6"/>
    <circle id="Ellipse_304" data-name="Ellipse 304" cx="2" cy="2" r="2" transform="translate(83 30)" fill="#61c3d6"/>
    <circle id="Ellipse_305" data-name="Ellipse 305" cx="2" cy="2" r="2" transform="translate(93 30)" fill="#61c3d6"/>
    <circle id="Ellipse_306" data-name="Ellipse 306" cx="2" cy="2" r="2" transform="translate(103 30)" fill="#61c3d6"/>
    <circle id="Ellipse_307" data-name="Ellipse 307" cx="2" cy="2" r="2" transform="translate(113 30)" fill="#61c3d6"/>
    <circle id="Ellipse_308" data-name="Ellipse 308" cx="2" cy="2" r="2" transform="translate(123 30)" fill="#61c3d6"/>
    <circle id="Ellipse_309" data-name="Ellipse 309" cx="2" cy="2" r="2" transform="translate(133 30)" fill="#61c3d6"/>
    <circle id="Ellipse_310" data-name="Ellipse 310" cx="2" cy="2" r="2" transform="translate(143 30)" fill="#61c3d6"/>
    <circle id="Ellipse_311" data-name="Ellipse 311" cx="2" cy="2" r="2" transform="translate(153 30)" fill="#61c3d6"/>
    <circle id="Ellipse_312" data-name="Ellipse 312" cx="2" cy="2" r="2" transform="translate(163 30)" fill="#61c3d6"/>
    <circle id="Ellipse_313" data-name="Ellipse 313" cx="2" cy="2" r="2" transform="translate(13 40)" fill="#61c3d6"/>
    <circle id="Ellipse_314" data-name="Ellipse 314" cx="2" cy="2" r="2" transform="translate(23 40)" fill="#61c3d6"/>
    <circle id="Ellipse_315" data-name="Ellipse 315" cx="2" cy="2" r="2" transform="translate(33 40)" fill="#61c3d6"/>
    <circle id="Ellipse_316" data-name="Ellipse 316" cx="2" cy="2" r="2" transform="translate(43 40)" fill="#61c3d6"/>
    <circle id="Ellipse_317" data-name="Ellipse 317" cx="2" cy="2" r="2" transform="translate(53 40)" fill="#61c3d6"/>
    <circle id="Ellipse_318" data-name="Ellipse 318" cx="2" cy="2" r="2" transform="translate(63 40)" fill="#61c3d6"/>
    <circle id="Ellipse_319" data-name="Ellipse 319" cx="2" cy="2" r="2" transform="translate(73 40)" fill="#61c3d6"/>
    <circle id="Ellipse_320" data-name="Ellipse 320" cx="2" cy="2" r="2" transform="translate(83 40)" fill="#61c3d6"/>
    <circle id="Ellipse_321" data-name="Ellipse 321" cx="2" cy="2" r="2" transform="translate(93 40)" fill="#61c3d6"/>
    <circle id="Ellipse_322" data-name="Ellipse 322" cx="2" cy="2" r="2" transform="translate(103 40)" fill="#61c3d6"/>
    <circle id="Ellipse_323" data-name="Ellipse 323" cx="2" cy="2" r="2" transform="translate(113 40)" fill="#61c3d6"/>
    <circle id="Ellipse_324" data-name="Ellipse 324" cx="2" cy="2" r="2" transform="translate(123 40)" fill="#61c3d6"/>
    <circle id="Ellipse_325" data-name="Ellipse 325" cx="2" cy="2" r="2" transform="translate(133 40)" fill="#61c3d6"/>
    <circle id="Ellipse_326" data-name="Ellipse 326" cx="2" cy="2" r="2" transform="translate(143 40)" fill="#61c3d6"/>
    <circle id="Ellipse_327" data-name="Ellipse 327" cx="2" cy="2" r="2" transform="translate(153 40)" fill="#61c3d6"/>
    <circle id="Ellipse_328" data-name="Ellipse 328" cx="2" cy="2" r="2" transform="translate(163 40)" fill="#61c3d6"/>
    <circle id="Ellipse_329" data-name="Ellipse 329" cx="2" cy="2" r="2" transform="translate(13 50)" fill="#61c3d6"/>
    <circle id="Ellipse_330" data-name="Ellipse 330" cx="2" cy="2" r="2" transform="translate(23 50)" fill="#61c3d6"/>
    <circle id="Ellipse_331" data-name="Ellipse 331" cx="2" cy="2" r="2" transform="translate(33 50)" fill="#61c3d6"/>
    <circle id="Ellipse_332" data-name="Ellipse 332" cx="2" cy="2" r="2" transform="translate(43 50)" fill="#61c3d6"/>
    <circle id="Ellipse_333" data-name="Ellipse 333" cx="2" cy="2" r="2" transform="translate(53 50)" fill="#61c3d6"/>
    <circle id="Ellipse_334" data-name="Ellipse 334" cx="2" cy="2" r="2" transform="translate(63 50)" fill="#61c3d6"/>
    <circle id="Ellipse_335" data-name="Ellipse 335" cx="2" cy="2" r="2" transform="translate(73 50)" fill="#61c3d6"/>
    <circle id="Ellipse_336" data-name="Ellipse 336" cx="2" cy="2" r="2" transform="translate(83 50)" fill="#61c3d6"/>
    <circle id="Ellipse_337" data-name="Ellipse 337" cx="2" cy="2" r="2" transform="translate(93 50)" fill="#61c3d6"/>
    <circle id="Ellipse_338" data-name="Ellipse 338" cx="2" cy="2" r="2" transform="translate(103 50)" fill="#61c3d6"/>
    <circle id="Ellipse_339" data-name="Ellipse 339" cx="2" cy="2" r="2" transform="translate(113 50)" fill="#61c3d6"/>
    <circle id="Ellipse_340" data-name="Ellipse 340" cx="2" cy="2" r="2" transform="translate(123 50)" fill="#61c3d6"/>
    <circle id="Ellipse_341" data-name="Ellipse 341" cx="2" cy="2" r="2" transform="translate(133 50)" fill="#61c3d6"/>
    <circle id="Ellipse_342" data-name="Ellipse 342" cx="2" cy="2" r="2" transform="translate(143 50)" fill="#61c3d6"/>
    <circle id="Ellipse_343" data-name="Ellipse 343" cx="2" cy="2" r="2" transform="translate(153 50)" fill="#61c3d6"/>
    <circle id="Ellipse_344" data-name="Ellipse 344" cx="2" cy="2" r="2" transform="translate(163 50)" fill="#61c3d6"/>
    <circle id="Ellipse_345" data-name="Ellipse 345" cx="2" cy="2" r="2" transform="translate(13 60)" fill="#61c3d6"/>
    <circle id="Ellipse_346" data-name="Ellipse 346" cx="2" cy="2" r="2" transform="translate(23 60)" fill="#61c3d6"/>
    <circle id="Ellipse_347" data-name="Ellipse 347" cx="2" cy="2" r="2" transform="translate(33 60)" fill="#61c3d6"/>
    <circle id="Ellipse_348" data-name="Ellipse 348" cx="2" cy="2" r="2" transform="translate(43 60)" fill="#61c3d6"/>
    <circle id="Ellipse_349" data-name="Ellipse 349" cx="2" cy="2" r="2" transform="translate(53 60)" fill="#61c3d6"/>
    <circle id="Ellipse_350" data-name="Ellipse 350" cx="2" cy="2" r="2" transform="translate(63 60)" fill="#61c3d6"/>
    <circle id="Ellipse_351" data-name="Ellipse 351" cx="2" cy="2" r="2" transform="translate(73 60)" fill="#61c3d6"/>
    <circle id="Ellipse_352" data-name="Ellipse 352" cx="2" cy="2" r="2" transform="translate(83 60)" fill="#61c3d6"/>
    <circle id="Ellipse_353" data-name="Ellipse 353" cx="2" cy="2" r="2" transform="translate(93 60)" fill="#61c3d6"/>
    <circle id="Ellipse_354" data-name="Ellipse 354" cx="2" cy="2" r="2" transform="translate(103 60)" fill="#61c3d6"/>
    <circle id="Ellipse_355" data-name="Ellipse 355" cx="2" cy="2" r="2" transform="translate(113 60)" fill="#61c3d6"/>
    <circle id="Ellipse_356" data-name="Ellipse 356" cx="2" cy="2" r="2" transform="translate(123 60)" fill="#61c3d6"/>
    <circle id="Ellipse_357" data-name="Ellipse 357" cx="2" cy="2" r="2" transform="translate(133 60)" fill="#61c3d6"/>
    <circle id="Ellipse_358" data-name="Ellipse 358" cx="2" cy="2" r="2" transform="translate(143 60)" fill="#61c3d6"/>
    <circle id="Ellipse_359" data-name="Ellipse 359" cx="2" cy="2" r="2" transform="translate(153 60)" fill="#61c3d6"/>
    <circle id="Ellipse_360" data-name="Ellipse 360" cx="2" cy="2" r="2" transform="translate(163 60)" fill="#61c3d6"/>
    <circle id="Ellipse_361" data-name="Ellipse 361" cx="2" cy="2" r="2" transform="translate(13 70)" fill="#61c3d6"/>
    <circle id="Ellipse_362" data-name="Ellipse 362" cx="2" cy="2" r="2" transform="translate(23 70)" fill="#61c3d6"/>
    <circle id="Ellipse_363" data-name="Ellipse 363" cx="2" cy="2" r="2" transform="translate(33 70)" fill="#61c3d6"/>
    <circle id="Ellipse_364" data-name="Ellipse 364" cx="2" cy="2" r="2" transform="translate(43 70)" fill="#61c3d6"/>
    <circle id="Ellipse_365" data-name="Ellipse 365" cx="2" cy="2" r="2" transform="translate(53 70)" fill="#61c3d6"/>
    <circle id="Ellipse_366" data-name="Ellipse 366" cx="2" cy="2" r="2" transform="translate(63 70)" fill="#61c3d6"/>
    <circle id="Ellipse_367" data-name="Ellipse 367" cx="2" cy="2" r="2" transform="translate(73 70)" fill="#61c3d6"/>
    <circle id="Ellipse_368" data-name="Ellipse 368" cx="2" cy="2" r="2" transform="translate(83 70)" fill="#61c3d6"/>
    <circle id="Ellipse_369" data-name="Ellipse 369" cx="2" cy="2" r="2" transform="translate(93 70)" fill="#61c3d6"/>
    <circle id="Ellipse_370" data-name="Ellipse 370" cx="2" cy="2" r="2" transform="translate(103 70)" fill="#61c3d6"/>
    <circle id="Ellipse_371" data-name="Ellipse 371" cx="2" cy="2" r="2" transform="translate(113 70)" fill="#61c3d6"/>
    <circle id="Ellipse_372" data-name="Ellipse 372" cx="2" cy="2" r="2" transform="translate(123 70)" fill="#61c3d6"/>
    <circle id="Ellipse_373" data-name="Ellipse 373" cx="2" cy="2" r="2" transform="translate(133 70)" fill="#61c3d6"/>
    <circle id="Ellipse_374" data-name="Ellipse 374" cx="2" cy="2" r="2" transform="translate(143 70)" fill="#61c3d6"/>
    <circle id="Ellipse_375" data-name="Ellipse 375" cx="2" cy="2" r="2" transform="translate(153 70)" fill="#61c3d6"/>
    <circle id="Ellipse_376" data-name="Ellipse 376" cx="2" cy="2" r="2" transform="translate(163 70)" fill="#61c3d6"/>
    <circle id="Ellipse_377" data-name="Ellipse 377" cx="2" cy="2" r="2" transform="translate(13 80)" fill="#61c3d6"/>
    <circle id="Ellipse_378" data-name="Ellipse 378" cx="2" cy="2" r="2" transform="translate(23 80)" fill="#61c3d6"/>
    <circle id="Ellipse_379" data-name="Ellipse 379" cx="2" cy="2" r="2" transform="translate(33 80)" fill="#61c3d6"/>
    <circle id="Ellipse_380" data-name="Ellipse 380" cx="2" cy="2" r="2" transform="translate(43 80)" fill="#61c3d6"/>
    <circle id="Ellipse_381" data-name="Ellipse 381" cx="2" cy="2" r="2" transform="translate(53 80)" fill="#61c3d6"/>
    <circle id="Ellipse_382" data-name="Ellipse 382" cx="2" cy="2" r="2" transform="translate(63 80)" fill="#61c3d6"/>
    <circle id="Ellipse_383" data-name="Ellipse 383" cx="2" cy="2" r="2" transform="translate(73 80)" fill="#61c3d6"/>
    <circle id="Ellipse_384" data-name="Ellipse 384" cx="2" cy="2" r="2" transform="translate(83 80)" fill="#61c3d6"/>
    <circle id="Ellipse_385" data-name="Ellipse 385" cx="2" cy="2" r="2" transform="translate(93 80)" fill="#61c3d6"/>
    <circle id="Ellipse_386" data-name="Ellipse 386" cx="2" cy="2" r="2" transform="translate(103 80)" fill="#61c3d6"/>
    <circle id="Ellipse_387" data-name="Ellipse 387" cx="2" cy="2" r="2" transform="translate(113 80)" fill="#61c3d6"/>
    <circle id="Ellipse_388" data-name="Ellipse 388" cx="2" cy="2" r="2" transform="translate(123 80)" fill="#61c3d6"/>
    <circle id="Ellipse_389" data-name="Ellipse 389" cx="2" cy="2" r="2" transform="translate(133 80)" fill="#61c3d6"/>
    <circle id="Ellipse_390" data-name="Ellipse 390" cx="2" cy="2" r="2" transform="translate(143 80)" fill="#61c3d6"/>
    <circle id="Ellipse_391" data-name="Ellipse 391" cx="2" cy="2" r="2" transform="translate(153 80)" fill="#61c3d6"/>
    <circle id="Ellipse_392" data-name="Ellipse 392" cx="2" cy="2" r="2" transform="translate(163 80)" fill="#61c3d6"/>
    <circle id="Ellipse_393" data-name="Ellipse 393" cx="2" cy="2" r="2" transform="translate(13 90)" fill="#61c3d6"/>
    <circle id="Ellipse_394" data-name="Ellipse 394" cx="2" cy="2" r="2" transform="translate(23 90)" fill="#61c3d6"/>
    <circle id="Ellipse_395" data-name="Ellipse 395" cx="2" cy="2" r="2" transform="translate(33 90)" fill="#61c3d6"/>
    <circle id="Ellipse_396" data-name="Ellipse 396" cx="2" cy="2" r="2" transform="translate(43 90)" fill="#61c3d6"/>
    <circle id="Ellipse_397" data-name="Ellipse 397" cx="2" cy="2" r="2" transform="translate(53 90)" fill="#61c3d6"/>
    <circle id="Ellipse_398" data-name="Ellipse 398" cx="2" cy="2" r="2" transform="translate(63 90)" fill="#61c3d6"/>
    <circle id="Ellipse_399" data-name="Ellipse 399" cx="2" cy="2" r="2" transform="translate(73 90)" fill="#61c3d6"/>
    <circle id="Ellipse_400" data-name="Ellipse 400" cx="2" cy="2" r="2" transform="translate(83 90)" fill="#61c3d6"/>
    <circle id="Ellipse_401" data-name="Ellipse 401" cx="2" cy="2" r="2" transform="translate(93 90)" fill="#61c3d6"/>
    <circle id="Ellipse_402" data-name="Ellipse 402" cx="2" cy="2" r="2" transform="translate(103 90)" fill="#61c3d6"/>
    <circle id="Ellipse_403" data-name="Ellipse 403" cx="2" cy="2" r="2" transform="translate(113 90)" fill="#61c3d6"/>
    <circle id="Ellipse_404" data-name="Ellipse 404" cx="2" cy="2" r="2" transform="translate(123 90)" fill="#61c3d6"/>
    <circle id="Ellipse_405" data-name="Ellipse 405" cx="2" cy="2" r="2" transform="translate(133 90)" fill="#61c3d6"/>
    <circle id="Ellipse_406" data-name="Ellipse 406" cx="2" cy="2" r="2" transform="translate(143 90)" fill="#61c3d6"/>
    <circle id="Ellipse_407" data-name="Ellipse 407" cx="2" cy="2" r="2" transform="translate(153 90)" fill="#61c3d6"/>
    <circle id="Ellipse_408" data-name="Ellipse 408" cx="2" cy="2" r="2" transform="translate(163 90)" fill="#61c3d6"/>
    <circle id="Ellipse_409" data-name="Ellipse 409" cx="2" cy="2" r="2" transform="translate(13 100)" fill="#61c3d6"/>
    <circle id="Ellipse_410" data-name="Ellipse 410" cx="2" cy="2" r="2" transform="translate(23 100)" fill="#61c3d6"/>
    <circle id="Ellipse_411" data-name="Ellipse 411" cx="2" cy="2" r="2" transform="translate(33 100)" fill="#61c3d6"/>
    <circle id="Ellipse_412" data-name="Ellipse 412" cx="2" cy="2" r="2" transform="translate(43 100)" fill="#61c3d6"/>
    <circle id="Ellipse_413" data-name="Ellipse 413" cx="2" cy="2" r="2" transform="translate(53 100)" fill="#61c3d6"/>
    <circle id="Ellipse_414" data-name="Ellipse 414" cx="2" cy="2" r="2" transform="translate(63 100)" fill="#61c3d6"/>
    <circle id="Ellipse_415" data-name="Ellipse 415" cx="2" cy="2" r="2" transform="translate(73 100)" fill="#61c3d6"/>
    <circle id="Ellipse_416" data-name="Ellipse 416" cx="2" cy="2" r="2" transform="translate(83 100)" fill="#61c3d6"/>
    <circle id="Ellipse_417" data-name="Ellipse 417" cx="2" cy="2" r="2" transform="translate(93 100)" fill="#61c3d6"/>
    <circle id="Ellipse_418" data-name="Ellipse 418" cx="2" cy="2" r="2" transform="translate(103 100)" fill="#61c3d6"/>
    <circle id="Ellipse_419" data-name="Ellipse 419" cx="2" cy="2" r="2" transform="translate(113 100)" fill="#61c3d6"/>
    <circle id="Ellipse_420" data-name="Ellipse 420" cx="2" cy="2" r="2" transform="translate(123 100)" fill="#61c3d6"/>
    <circle id="Ellipse_421" data-name="Ellipse 421" cx="2" cy="2" r="2" transform="translate(133 100)" fill="#61c3d6"/>
    <circle id="Ellipse_422" data-name="Ellipse 422" cx="2" cy="2" r="2" transform="translate(143 100)" fill="#61c3d6"/>
    <circle id="Ellipse_423" data-name="Ellipse 423" cx="2" cy="2" r="2" transform="translate(153 100)" fill="#61c3d6"/>
    <circle id="Ellipse_424" data-name="Ellipse 424" cx="2" cy="2" r="2" transform="translate(163 100)" fill="#61c3d6"/>
    <circle id="Ellipse_425" data-name="Ellipse 425" cx="2" cy="2" r="2" transform="translate(13 110)" fill="#61c3d6"/>
    <circle id="Ellipse_426" data-name="Ellipse 426" cx="2" cy="2" r="2" transform="translate(23 110)" fill="#61c3d6"/>
    <circle id="Ellipse_427" data-name="Ellipse 427" cx="2" cy="2" r="2" transform="translate(33 110)" fill="#61c3d6"/>
    <circle id="Ellipse_428" data-name="Ellipse 428" cx="2" cy="2" r="2" transform="translate(43 110)" fill="#61c3d6"/>
    <circle id="Ellipse_429" data-name="Ellipse 429" cx="2" cy="2" r="2" transform="translate(53 110)" fill="#61c3d6"/>
    <circle id="Ellipse_430" data-name="Ellipse 430" cx="2" cy="2" r="2" transform="translate(63 110)" fill="#61c3d6"/>
    <circle id="Ellipse_431" data-name="Ellipse 431" cx="2" cy="2" r="2" transform="translate(73 110)" fill="#61c3d6"/>
    <circle id="Ellipse_432" data-name="Ellipse 432" cx="2" cy="2" r="2" transform="translate(83 110)" fill="#61c3d6"/>
    <circle id="Ellipse_433" data-name="Ellipse 433" cx="2" cy="2" r="2" transform="translate(93 110)" fill="#61c3d6"/>
    <circle id="Ellipse_434" data-name="Ellipse 434" cx="2" cy="2" r="2" transform="translate(103 110)" fill="#61c3d6"/>
    <circle id="Ellipse_435" data-name="Ellipse 435" cx="2" cy="2" r="2" transform="translate(113 110)" fill="#61c3d6"/>
    <circle id="Ellipse_436" data-name="Ellipse 436" cx="2" cy="2" r="2" transform="translate(123 110)" fill="#61c3d6"/>
    <circle id="Ellipse_437" data-name="Ellipse 437" cx="2" cy="2" r="2" transform="translate(133 110)" fill="#61c3d6"/>
    <circle id="Ellipse_438" data-name="Ellipse 438" cx="2" cy="2" r="2" transform="translate(143 110)" fill="#61c3d6"/>
    <circle id="Ellipse_439" data-name="Ellipse 439" cx="2" cy="2" r="2" transform="translate(153 110)" fill="#61c3d6"/>
    <circle id="Ellipse_440" data-name="Ellipse 440" cx="2" cy="2" r="2" transform="translate(163 110)" fill="#61c3d6"/>
    <circle id="Ellipse_441" data-name="Ellipse 441" cx="2" cy="2" r="2" transform="translate(13 120)" fill="#61c3d6"/>
    <circle id="Ellipse_442" data-name="Ellipse 442" cx="2" cy="2" r="2" transform="translate(23 120)" fill="#61c3d6"/>
    <circle id="Ellipse_443" data-name="Ellipse 443" cx="2" cy="2" r="2" transform="translate(33 120)" fill="#61c3d6"/>
    <circle id="Ellipse_444" data-name="Ellipse 444" cx="2" cy="2" r="2" transform="translate(43 120)" fill="#61c3d6"/>
    <circle id="Ellipse_445" data-name="Ellipse 445" cx="2" cy="2" r="2" transform="translate(53 120)" fill="#61c3d6"/>
    <circle id="Ellipse_446" data-name="Ellipse 446" cx="2" cy="2" r="2" transform="translate(63 120)" fill="#61c3d6"/>
    <circle id="Ellipse_447" data-name="Ellipse 447" cx="2" cy="2" r="2" transform="translate(73 120)" fill="#61c3d6"/>
    <circle id="Ellipse_448" data-name="Ellipse 448" cx="2" cy="2" r="2" transform="translate(83 120)" fill="#61c3d6"/>
    <circle id="Ellipse_449" data-name="Ellipse 449" cx="2" cy="2" r="2" transform="translate(93 120)" fill="#61c3d6"/>
    <circle id="Ellipse_450" data-name="Ellipse 450" cx="2" cy="2" r="2" transform="translate(103 120)" fill="#61c3d6"/>
    <circle id="Ellipse_451" data-name="Ellipse 451" cx="2" cy="2" r="2" transform="translate(113 120)" fill="#61c3d6"/>
    <circle id="Ellipse_452" data-name="Ellipse 452" cx="2" cy="2" r="2" transform="translate(123 120)" fill="#61c3d6"/>
    <circle id="Ellipse_453" data-name="Ellipse 453" cx="2" cy="2" r="2" transform="translate(133 120)" fill="#61c3d6"/>
    <circle id="Ellipse_454" data-name="Ellipse 454" cx="2" cy="2" r="2" transform="translate(143 120)" fill="#61c3d6"/>
    <circle id="Ellipse_455" data-name="Ellipse 455" cx="2" cy="2" r="2" transform="translate(153 120)" fill="#61c3d6"/>
    <circle id="Ellipse_456" data-name="Ellipse 456" cx="2" cy="2" r="2" transform="translate(163 120)" fill="#61c3d6"/>
    <circle id="Ellipse_457" data-name="Ellipse 457" cx="2" cy="2" r="2" transform="translate(13 130)" fill="#61c3d6"/>
    <circle id="Ellipse_458" data-name="Ellipse 458" cx="2" cy="2" r="2" transform="translate(23 130)" fill="#61c3d6"/>
    <circle id="Ellipse_459" data-name="Ellipse 459" cx="2" cy="2" r="2" transform="translate(33 130)" fill="#61c3d6"/>
    <circle id="Ellipse_460" data-name="Ellipse 460" cx="2" cy="2" r="2" transform="translate(43 130)" fill="#61c3d6"/>
    <circle id="Ellipse_461" data-name="Ellipse 461" cx="2" cy="2" r="2" transform="translate(53 130)" fill="#61c3d6"/>
    <circle id="Ellipse_462" data-name="Ellipse 462" cx="2" cy="2" r="2" transform="translate(63 130)" fill="#61c3d6"/>
    <circle id="Ellipse_463" data-name="Ellipse 463" cx="2" cy="2" r="2" transform="translate(73 130)" fill="#61c3d6"/>
    <circle id="Ellipse_464" data-name="Ellipse 464" cx="2" cy="2" r="2" transform="translate(83 130)" fill="#61c3d6"/>
    <circle id="Ellipse_465" data-name="Ellipse 465" cx="2" cy="2" r="2" transform="translate(93 130)" fill="#61c3d6"/>
    <circle id="Ellipse_466" data-name="Ellipse 466" cx="2" cy="2" r="2" transform="translate(103 130)" fill="#61c3d6"/>
    <circle id="Ellipse_467" data-name="Ellipse 467" cx="2" cy="2" r="2" transform="translate(113 130)" fill="#61c3d6"/>
    <circle id="Ellipse_468" data-name="Ellipse 468" cx="2" cy="2" r="2" transform="translate(123 130)" fill="#61c3d6"/>
    <circle id="Ellipse_469" data-name="Ellipse 469" cx="2" cy="2" r="2" transform="translate(133 130)" fill="#61c3d6"/>
    <circle id="Ellipse_470" data-name="Ellipse 470" cx="2" cy="2" r="2" transform="translate(143 130)" fill="#61c3d6"/>
    <circle id="Ellipse_471" data-name="Ellipse 471" cx="2" cy="2" r="2" transform="translate(153 130)" fill="#61c3d6"/>
    <circle id="Ellipse_472" data-name="Ellipse 472" cx="2" cy="2" r="2" transform="translate(163 130)" fill="#61c3d6"/>
  </g>
</svg>
