<svg xmlns="http://www.w3.org/2000/svg" xmlns:xlink="http://www.w3.org/1999/xlink" width="773" height="500" viewBox="0 0 773 500">
  <defs>
    <clipPath id="clip-path">
      <rect id="Rectangle_64" data-name="Rectangle 64" width="773" height="500" fill="#d9d9d9"/>
    </clipPath>
  </defs>
  <g id="intro" clip-path="url(#clip-path)">
    <rect id="Rectangle_63" data-name="Rectangle 63" width="773" height="500" fill="#d9d9d9"/>
    <g id="Groupe_2" data-name="Groupe 2" transform="translate(-10.195 -13)">
      <g id="dots-pricing-left" transform="translate(183.239 433.215) rotate(180)">
        <path id="Tracé_1" data-name="Tracé 1" d="M63.278,0a63.278,63.278,0,1,0,0,126.555" transform="translate(0 38.624)" fill="#d9d9d9"/>
        <g id="Groupe_1" data-name="Groupe 1" transform="translate(10.683)">
          <circle id="Ellipse_1" data-name="Ellipse 1" cx="1.644" cy="1.644" r="1.644" transform="translate(0 0)" fill="#d9d9d9"/>
          <circle id="Ellipse_2" data-name="Ellipse 2" cx="1.644" cy="1.644" r="1.644" transform="translate(8.218 0)" fill="#d9d9d9"/>
          <circle id="Ellipse_3" data-name="Ellipse 3" cx="1.644" cy="1.644" r="1.644" transform="translate(16.436 0)" fill="#d9d9d9"/>
          <circle id="Ellipse_4" data-name="Ellipse 4" cx="1.644" cy="1.644" r="1.644" transform="translate(24.654 0)" fill="#d9d9d9"/>
          <circle id="Ellipse_5" data-name="Ellipse 5" cx="1.644" cy="1.644" r="1.644" transform="translate(32.872 0)" fill="#d9d9d9"/>
          <circle id="Ellipse_6" data-name="Ellipse 6" cx="1.644" cy="1.644" r="1.644" transform="translate(41.089 0)" fill="#d9d9d9"/>
          <circle id="Ellipse_7" data-name="Ellipse 7" cx="1.644" cy="1.644" r="1.644" transform="translate(49.307 0)" fill="#d9d9d9"/>
          <circle id="Ellipse_8" data-name="Ellipse 8" cx="1.644" cy="1.644" r="1.644" transform="translate(57.525 0)" fill="#d9d9d9"/>
          <circle id="Ellipse_9" data-name="Ellipse 9" cx="1.644" cy="1.644" r="1.644" transform="translate(65.743 0)" fill="#d9d9d9"/>
          <circle id="Ellipse_10" data-name="Ellipse 10" cx="1.644" cy="1.644" r="1.644" transform="translate(73.961 0)" fill="#d9d9d9"/>
          <circle id="Ellipse_11" data-name="Ellipse 11" cx="1.644" cy="1.644" r="1.644" transform="translate(82.179 0)" fill="#d9d9d9"/>
          <circle id="Ellipse_12" data-name="Ellipse 12" cx="1.644" cy="1.644" r="1.644" transform="translate(90.397 0)" fill="#d9d9d9"/>
          <circle id="Ellipse_13" data-name="Ellipse 13" cx="1.644" cy="1.644" r="1.644" transform="translate(98.615 0)" fill="#d9d9d9"/>
          <circle id="Ellipse_14" data-name="Ellipse 14" cx="1.644" cy="1.644" r="1.644" transform="translate(106.833 0)" fill="#d9d9d9"/>
          <circle id="Ellipse_15" data-name="Ellipse 15" cx="1.644" cy="1.644" r="1.644" transform="translate(115.05 0)" fill="#d9d9d9"/>
          <circle id="Ellipse_16" data-name="Ellipse 16" cx="1.644" cy="1.644" r="1.644" transform="translate(123.268 0)" fill="#d9d9d9"/>
          <circle id="Ellipse_17" data-name="Ellipse 17" cx="1.644" cy="1.644" r="1.644" transform="translate(0 8.218)" fill="#d9d9d9"/>
          <circle id="Ellipse_18" data-name="Ellipse 18" cx="1.644" cy="1.644" r="1.644" transform="translate(8.218 8.218)" fill="#d9d9d9"/>
          <circle id="Ellipse_19" data-name="Ellipse 19" cx="1.644" cy="1.644" r="1.644" transform="translate(16.436 8.218)" fill="#d9d9d9"/>
          <circle id="Ellipse_20" data-name="Ellipse 20" cx="1.644" cy="1.644" r="1.644" transform="translate(24.654 8.218)" fill="#d9d9d9"/>
          <circle id="Ellipse_21" data-name="Ellipse 21" cx="1.644" cy="1.644" r="1.644" transform="translate(32.872 8.218)" fill="#d9d9d9"/>
          <circle id="Ellipse_22" data-name="Ellipse 22" cx="1.644" cy="1.644" r="1.644" transform="translate(41.089 8.218)" fill="#d9d9d9"/>
          <circle id="Ellipse_23" data-name="Ellipse 23" cx="1.644" cy="1.644" r="1.644" transform="translate(49.307 8.218)" fill="#d9d9d9"/>
          <circle id="Ellipse_24" data-name="Ellipse 24" cx="1.644" cy="1.644" r="1.644" transform="translate(57.525 8.218)" fill="#d9d9d9"/>
          <circle id="Ellipse_25" data-name="Ellipse 25" cx="1.644" cy="1.644" r="1.644" transform="translate(65.743 8.218)" fill="#d9d9d9"/>
          <circle id="Ellipse_26" data-name="Ellipse 26" cx="1.644" cy="1.644" r="1.644" transform="translate(73.961 8.218)" fill="#d9d9d9"/>
          <circle id="Ellipse_27" data-name="Ellipse 27" cx="1.644" cy="1.644" r="1.644" transform="translate(82.179 8.218)" fill="#d9d9d9"/>
          <circle id="Ellipse_28" data-name="Ellipse 28" cx="1.644" cy="1.644" r="1.644" transform="translate(90.397 8.218)" fill="#d9d9d9"/>
          <circle id="Ellipse_29" data-name="Ellipse 29" cx="1.644" cy="1.644" r="1.644" transform="translate(98.615 8.218)" fill="#d9d9d9"/>
          <circle id="Ellipse_30" data-name="Ellipse 30" cx="1.644" cy="1.644" r="1.644" transform="translate(106.833 8.218)" fill="#d9d9d9"/>
          <circle id="Ellipse_31" data-name="Ellipse 31" cx="1.644" cy="1.644" r="1.644" transform="translate(115.05 8.218)" fill="#d9d9d9"/>
          <circle id="Ellipse_32" data-name="Ellipse 32" cx="1.644" cy="1.644" r="1.644" transform="translate(123.268 8.218)" fill="#d9d9d9"/>
          <circle id="Ellipse_33" data-name="Ellipse 33" cx="1.644" cy="1.644" r="1.644" transform="translate(0 16.436)" fill="#d9d9d9"/>
          <circle id="Ellipse_34" data-name="Ellipse 34" cx="1.644" cy="1.644" r="1.644" transform="translate(8.218 16.436)" fill="#d9d9d9"/>
          <circle id="Ellipse_35" data-name="Ellipse 35" cx="1.644" cy="1.644" r="1.644" transform="translate(16.436 16.436)" fill="#d9d9d9"/>
          <circle id="Ellipse_36" data-name="Ellipse 36" cx="1.644" cy="1.644" r="1.644" transform="translate(24.654 16.436)" fill="#d9d9d9"/>
          <circle id="Ellipse_37" data-name="Ellipse 37" cx="1.644" cy="1.644" r="1.644" transform="translate(32.872 16.436)" fill="#d9d9d9"/>
          <circle id="Ellipse_38" data-name="Ellipse 38" cx="1.644" cy="1.644" r="1.644" transform="translate(41.089 16.436)" fill="#d9d9d9"/>
          <circle id="Ellipse_39" data-name="Ellipse 39" cx="1.644" cy="1.644" r="1.644" transform="translate(49.307 16.436)" fill="#d9d9d9"/>
          <circle id="Ellipse_40" data-name="Ellipse 40" cx="1.644" cy="1.644" r="1.644" transform="translate(57.525 16.436)" fill="#d9d9d9"/>
          <circle id="Ellipse_41" data-name="Ellipse 41" cx="1.644" cy="1.644" r="1.644" transform="translate(65.743 16.436)" fill="#d9d9d9"/>
          <circle id="Ellipse_42" data-name="Ellipse 42" cx="1.644" cy="1.644" r="1.644" transform="translate(73.961 16.436)" fill="#d9d9d9"/>
          <circle id="Ellipse_43" data-name="Ellipse 43" cx="1.644" cy="1.644" r="1.644" transform="translate(82.179 16.436)" fill="#d9d9d9"/>
          <circle id="Ellipse_44" data-name="Ellipse 44" cx="1.644" cy="1.644" r="1.644" transform="translate(90.397 16.436)" fill="#d9d9d9"/>
          <circle id="Ellipse_45" data-name="Ellipse 45" cx="1.644" cy="1.644" r="1.644" transform="translate(98.615 16.436)" fill="#d9d9d9"/>
          <circle id="Ellipse_46" data-name="Ellipse 46" cx="1.644" cy="1.644" r="1.644" transform="translate(106.833 16.436)" fill="#d9d9d9"/>
          <circle id="Ellipse_47" data-name="Ellipse 47" cx="1.644" cy="1.644" r="1.644" transform="translate(115.05 16.436)" fill="#d9d9d9"/>
          <circle id="Ellipse_48" data-name="Ellipse 48" cx="1.644" cy="1.644" r="1.644" transform="translate(123.268 16.436)" fill="#d9d9d9"/>
          <circle id="Ellipse_49" data-name="Ellipse 49" cx="1.644" cy="1.644" r="1.644" transform="translate(0 24.654)" fill="#d9d9d9"/>
          <circle id="Ellipse_50" data-name="Ellipse 50" cx="1.644" cy="1.644" r="1.644" transform="translate(8.218 24.654)" fill="#d9d9d9"/>
          <circle id="Ellipse_51" data-name="Ellipse 51" cx="1.644" cy="1.644" r="1.644" transform="translate(16.436 24.654)" fill="#d9d9d9"/>
          <circle id="Ellipse_52" data-name="Ellipse 52" cx="1.644" cy="1.644" r="1.644" transform="translate(24.654 24.654)" fill="#d9d9d9"/>
          <circle id="Ellipse_53" data-name="Ellipse 53" cx="1.644" cy="1.644" r="1.644" transform="translate(32.872 24.654)" fill="#d9d9d9"/>
          <circle id="Ellipse_54" data-name="Ellipse 54" cx="1.644" cy="1.644" r="1.644" transform="translate(41.089 24.654)" fill="#d9d9d9"/>
          <circle id="Ellipse_55" data-name="Ellipse 55" cx="1.644" cy="1.644" r="1.644" transform="translate(49.307 24.654)" fill="#d9d9d9"/>
          <circle id="Ellipse_56" data-name="Ellipse 56" cx="1.644" cy="1.644" r="1.644" transform="translate(57.525 24.654)" fill="#d9d9d9"/>
          <circle id="Ellipse_57" data-name="Ellipse 57" cx="1.644" cy="1.644" r="1.644" transform="translate(65.743 24.654)" fill="#d9d9d9"/>
          <circle id="Ellipse_58" data-name="Ellipse 58" cx="1.644" cy="1.644" r="1.644" transform="translate(73.961 24.654)" fill="#d9d9d9"/>
          <circle id="Ellipse_59" data-name="Ellipse 59" cx="1.644" cy="1.644" r="1.644" transform="translate(82.179 24.654)" fill="#d9d9d9"/>
          <circle id="Ellipse_60" data-name="Ellipse 60" cx="1.644" cy="1.644" r="1.644" transform="translate(90.397 24.654)" fill="#d9d9d9"/>
          <circle id="Ellipse_61" data-name="Ellipse 61" cx="1.644" cy="1.644" r="1.644" transform="translate(98.615 24.654)" fill="#d9d9d9"/>
          <circle id="Ellipse_62" data-name="Ellipse 62" cx="1.644" cy="1.644" r="1.644" transform="translate(106.833 24.654)" fill="#d9d9d9"/>
          <circle id="Ellipse_63" data-name="Ellipse 63" cx="1.644" cy="1.644" r="1.644" transform="translate(115.05 24.654)" fill="#d9d9d9"/>
          <circle id="Ellipse_64" data-name="Ellipse 64" cx="1.644" cy="1.644" r="1.644" transform="translate(123.268 24.654)" fill="#d9d9d9"/>
          <circle id="Ellipse_65" data-name="Ellipse 65" cx="1.644" cy="1.644" r="1.644" transform="translate(0 32.872)" fill="#d9d9d9"/>
          <circle id="Ellipse_66" data-name="Ellipse 66" cx="1.644" cy="1.644" r="1.644" transform="translate(8.218 32.872)" fill="#d9d9d9"/>
          <circle id="Ellipse_67" data-name="Ellipse 67" cx="1.644" cy="1.644" r="1.644" transform="translate(16.436 32.872)" fill="#d9d9d9"/>
          <circle id="Ellipse_68" data-name="Ellipse 68" cx="1.644" cy="1.644" r="1.644" transform="translate(24.654 32.872)" fill="#d9d9d9"/>
          <circle id="Ellipse_69" data-name="Ellipse 69" cx="1.644" cy="1.644" r="1.644" transform="translate(32.872 32.872)" fill="#d9d9d9"/>
          <circle id="Ellipse_70" data-name="Ellipse 70" cx="1.644" cy="1.644" r="1.644" transform="translate(41.089 32.872)" fill="#d9d9d9"/>
          <circle id="Ellipse_71" data-name="Ellipse 71" cx="1.644" cy="1.644" r="1.644" transform="translate(49.307 32.872)" fill="#d9d9d9"/>
          <circle id="Ellipse_72" data-name="Ellipse 72" cx="1.644" cy="1.644" r="1.644" transform="translate(57.525 32.872)" fill="#d9d9d9"/>
          <circle id="Ellipse_73" data-name="Ellipse 73" cx="1.644" cy="1.644" r="1.644" transform="translate(65.743 32.872)" fill="#d9d9d9"/>
          <circle id="Ellipse_74" data-name="Ellipse 74" cx="1.644" cy="1.644" r="1.644" transform="translate(73.961 32.872)" fill="#d9d9d9"/>
          <circle id="Ellipse_75" data-name="Ellipse 75" cx="1.644" cy="1.644" r="1.644" transform="translate(82.179 32.872)" fill="#d9d9d9"/>
          <circle id="Ellipse_76" data-name="Ellipse 76" cx="1.644" cy="1.644" r="1.644" transform="translate(90.397 32.872)" fill="#d9d9d9"/>
          <circle id="Ellipse_77" data-name="Ellipse 77" cx="1.644" cy="1.644" r="1.644" transform="translate(98.615 32.872)" fill="#d9d9d9"/>
          <circle id="Ellipse_78" data-name="Ellipse 78" cx="1.644" cy="1.644" r="1.644" transform="translate(106.833 32.872)" fill="#d9d9d9"/>
          <circle id="Ellipse_79" data-name="Ellipse 79" cx="1.644" cy="1.644" r="1.644" transform="translate(115.05 32.872)" fill="#d9d9d9"/>
          <circle id="Ellipse_80" data-name="Ellipse 80" cx="1.644" cy="1.644" r="1.644" transform="translate(123.268 32.872)" fill="#d9d9d9"/>
          <circle id="Ellipse_81" data-name="Ellipse 81" cx="1.644" cy="1.644" r="1.644" transform="translate(0 41.089)" fill="#d9d9d9"/>
          <circle id="Ellipse_82" data-name="Ellipse 82" cx="1.644" cy="1.644" r="1.644" transform="translate(8.218 41.089)" fill="#d9d9d9"/>
          <circle id="Ellipse_83" data-name="Ellipse 83" cx="1.644" cy="1.644" r="1.644" transform="translate(16.436 41.089)" fill="#d9d9d9"/>
          <circle id="Ellipse_84" data-name="Ellipse 84" cx="1.644" cy="1.644" r="1.644" transform="translate(24.654 41.089)" fill="#d9d9d9"/>
          <circle id="Ellipse_85" data-name="Ellipse 85" cx="1.644" cy="1.644" r="1.644" transform="translate(32.872 41.089)" fill="#d9d9d9"/>
          <circle id="Ellipse_86" data-name="Ellipse 86" cx="1.644" cy="1.644" r="1.644" transform="translate(41.089 41.089)" fill="#d9d9d9"/>
          <circle id="Ellipse_87" data-name="Ellipse 87" cx="1.644" cy="1.644" r="1.644" transform="translate(49.307 41.089)" fill="#d9d9d9"/>
          <circle id="Ellipse_88" data-name="Ellipse 88" cx="1.644" cy="1.644" r="1.644" transform="translate(57.525 41.089)" fill="#d9d9d9"/>
          <circle id="Ellipse_89" data-name="Ellipse 89" cx="1.644" cy="1.644" r="1.644" transform="translate(65.743 41.089)" fill="#d9d9d9"/>
          <circle id="Ellipse_90" data-name="Ellipse 90" cx="1.644" cy="1.644" r="1.644" transform="translate(73.961 41.089)" fill="#d9d9d9"/>
          <circle id="Ellipse_91" data-name="Ellipse 91" cx="1.644" cy="1.644" r="1.644" transform="translate(82.179 41.089)" fill="#d9d9d9"/>
          <circle id="Ellipse_92" data-name="Ellipse 92" cx="1.644" cy="1.644" r="1.644" transform="translate(90.397 41.089)" fill="#d9d9d9"/>
          <circle id="Ellipse_93" data-name="Ellipse 93" cx="1.644" cy="1.644" r="1.644" transform="translate(98.615 41.089)" fill="#d9d9d9"/>
          <circle id="Ellipse_94" data-name="Ellipse 94" cx="1.644" cy="1.644" r="1.644" transform="translate(106.833 41.089)" fill="#d9d9d9"/>
          <circle id="Ellipse_95" data-name="Ellipse 95" cx="1.644" cy="1.644" r="1.644" transform="translate(115.05 41.089)" fill="#d9d9d9"/>
          <circle id="Ellipse_96" data-name="Ellipse 96" cx="1.644" cy="1.644" r="1.644" transform="translate(123.268 41.089)" fill="#d9d9d9"/>
          <circle id="Ellipse_97" data-name="Ellipse 97" cx="1.644" cy="1.644" r="1.644" transform="translate(0 49.307)" fill="#d9d9d9"/>
          <circle id="Ellipse_98" data-name="Ellipse 98" cx="1.644" cy="1.644" r="1.644" transform="translate(8.218 49.307)" fill="#d9d9d9"/>
          <circle id="Ellipse_99" data-name="Ellipse 99" cx="1.644" cy="1.644" r="1.644" transform="translate(16.436 49.307)" fill="#d9d9d9"/>
          <circle id="Ellipse_100" data-name="Ellipse 100" cx="1.644" cy="1.644" r="1.644" transform="translate(24.654 49.307)" fill="#d9d9d9"/>
          <circle id="Ellipse_101" data-name="Ellipse 101" cx="1.644" cy="1.644" r="1.644" transform="translate(32.872 49.307)" fill="#d9d9d9"/>
          <circle id="Ellipse_102" data-name="Ellipse 102" cx="1.644" cy="1.644" r="1.644" transform="translate(41.089 49.307)" fill="#d9d9d9"/>
          <circle id="Ellipse_103" data-name="Ellipse 103" cx="1.644" cy="1.644" r="1.644" transform="translate(49.307 49.307)" fill="#d9d9d9"/>
          <circle id="Ellipse_104" data-name="Ellipse 104" cx="1.644" cy="1.644" r="1.644" transform="translate(57.525 49.307)" fill="#d9d9d9"/>
          <circle id="Ellipse_105" data-name="Ellipse 105" cx="1.644" cy="1.644" r="1.644" transform="translate(65.743 49.307)" fill="#d9d9d9"/>
          <circle id="Ellipse_106" data-name="Ellipse 106" cx="1.644" cy="1.644" r="1.644" transform="translate(73.961 49.307)" fill="#d9d9d9"/>
          <circle id="Ellipse_107" data-name="Ellipse 107" cx="1.644" cy="1.644" r="1.644" transform="translate(82.179 49.307)" fill="#d9d9d9"/>
          <circle id="Ellipse_108" data-name="Ellipse 108" cx="1.644" cy="1.644" r="1.644" transform="translate(90.397 49.307)" fill="#d9d9d9"/>
          <circle id="Ellipse_109" data-name="Ellipse 109" cx="1.644" cy="1.644" r="1.644" transform="translate(98.615 49.307)" fill="#d9d9d9"/>
          <circle id="Ellipse_110" data-name="Ellipse 110" cx="1.644" cy="1.644" r="1.644" transform="translate(106.833 49.307)" fill="#d9d9d9"/>
          <circle id="Ellipse_111" data-name="Ellipse 111" cx="1.644" cy="1.644" r="1.644" transform="translate(115.05 49.307)" fill="#d9d9d9"/>
          <circle id="Ellipse_112" data-name="Ellipse 112" cx="1.644" cy="1.644" r="1.644" transform="translate(123.268 49.307)" fill="#d9d9d9"/>
          <circle id="Ellipse_113" data-name="Ellipse 113" cx="1.644" cy="1.644" r="1.644" transform="translate(0 57.525)" fill="#d9d9d9"/>
          <circle id="Ellipse_114" data-name="Ellipse 114" cx="1.644" cy="1.644" r="1.644" transform="translate(8.218 57.525)" fill="#d9d9d9"/>
          <circle id="Ellipse_115" data-name="Ellipse 115" cx="1.644" cy="1.644" r="1.644" transform="translate(16.436 57.525)" fill="#d9d9d9"/>
          <circle id="Ellipse_116" data-name="Ellipse 116" cx="1.644" cy="1.644" r="1.644" transform="translate(24.654 57.525)" fill="#d9d9d9"/>
          <circle id="Ellipse_117" data-name="Ellipse 117" cx="1.644" cy="1.644" r="1.644" transform="translate(32.872 57.525)" fill="#d9d9d9"/>
          <circle id="Ellipse_118" data-name="Ellipse 118" cx="1.644" cy="1.644" r="1.644" transform="translate(41.089 57.525)" fill="#d9d9d9"/>
          <circle id="Ellipse_119" data-name="Ellipse 119" cx="1.644" cy="1.644" r="1.644" transform="translate(49.307 57.525)" fill="#d9d9d9"/>
          <circle id="Ellipse_120" data-name="Ellipse 120" cx="1.644" cy="1.644" r="1.644" transform="translate(57.525 57.525)" fill="#d9d9d9"/>
          <circle id="Ellipse_121" data-name="Ellipse 121" cx="1.644" cy="1.644" r="1.644" transform="translate(65.743 57.525)" fill="#d9d9d9"/>
          <circle id="Ellipse_122" data-name="Ellipse 122" cx="1.644" cy="1.644" r="1.644" transform="translate(73.961 57.525)" fill="#d9d9d9"/>
          <circle id="Ellipse_123" data-name="Ellipse 123" cx="1.644" cy="1.644" r="1.644" transform="translate(82.179 57.525)" fill="#d9d9d9"/>
          <circle id="Ellipse_124" data-name="Ellipse 124" cx="1.644" cy="1.644" r="1.644" transform="translate(90.397 57.525)" fill="#d9d9d9"/>
          <circle id="Ellipse_125" data-name="Ellipse 125" cx="1.644" cy="1.644" r="1.644" transform="translate(98.615 57.525)" fill="#d9d9d9"/>
          <circle id="Ellipse_126" data-name="Ellipse 126" cx="1.644" cy="1.644" r="1.644" transform="translate(106.833 57.525)" fill="#d9d9d9"/>
          <circle id="Ellipse_127" data-name="Ellipse 127" cx="1.644" cy="1.644" r="1.644" transform="translate(115.05 57.525)" fill="#d9d9d9"/>
          <circle id="Ellipse_128" data-name="Ellipse 128" cx="1.644" cy="1.644" r="1.644" transform="translate(123.268 57.525)" fill="#d9d9d9"/>
          <circle id="Ellipse_129" data-name="Ellipse 129" cx="1.644" cy="1.644" r="1.644" transform="translate(0 65.743)" fill="#d9d9d9"/>
          <circle id="Ellipse_130" data-name="Ellipse 130" cx="1.644" cy="1.644" r="1.644" transform="translate(8.218 65.743)" fill="#d9d9d9"/>
          <circle id="Ellipse_131" data-name="Ellipse 131" cx="1.644" cy="1.644" r="1.644" transform="translate(16.436 65.743)" fill="#d9d9d9"/>
          <circle id="Ellipse_132" data-name="Ellipse 132" cx="1.644" cy="1.644" r="1.644" transform="translate(24.654 65.743)" fill="#d9d9d9"/>
          <circle id="Ellipse_133" data-name="Ellipse 133" cx="1.644" cy="1.644" r="1.644" transform="translate(32.872 65.743)" fill="#d9d9d9"/>
          <circle id="Ellipse_134" data-name="Ellipse 134" cx="1.644" cy="1.644" r="1.644" transform="translate(41.089 65.743)" fill="#d9d9d9"/>
          <circle id="Ellipse_135" data-name="Ellipse 135" cx="1.644" cy="1.644" r="1.644" transform="translate(49.307 65.743)" fill="#d9d9d9"/>
          <circle id="Ellipse_136" data-name="Ellipse 136" cx="1.644" cy="1.644" r="1.644" transform="translate(57.525 65.743)" fill="#d9d9d9"/>
          <circle id="Ellipse_137" data-name="Ellipse 137" cx="1.644" cy="1.644" r="1.644" transform="translate(65.743 65.743)" fill="#d9d9d9"/>
          <circle id="Ellipse_138" data-name="Ellipse 138" cx="1.644" cy="1.644" r="1.644" transform="translate(73.961 65.743)" fill="#d9d9d9"/>
          <circle id="Ellipse_139" data-name="Ellipse 139" cx="1.644" cy="1.644" r="1.644" transform="translate(82.179 65.743)" fill="#d9d9d9"/>
          <circle id="Ellipse_140" data-name="Ellipse 140" cx="1.644" cy="1.644" r="1.644" transform="translate(90.397 65.743)" fill="#d9d9d9"/>
          <circle id="Ellipse_141" data-name="Ellipse 141" cx="1.644" cy="1.644" r="1.644" transform="translate(98.615 65.743)" fill="#d9d9d9"/>
          <circle id="Ellipse_142" data-name="Ellipse 142" cx="1.644" cy="1.644" r="1.644" transform="translate(106.833 65.743)" fill="#d9d9d9"/>
          <circle id="Ellipse_143" data-name="Ellipse 143" cx="1.644" cy="1.644" r="1.644" transform="translate(115.05 65.743)" fill="#d9d9d9"/>
          <circle id="Ellipse_144" data-name="Ellipse 144" cx="1.644" cy="1.644" r="1.644" transform="translate(123.268 65.743)" fill="#d9d9d9"/>
          <circle id="Ellipse_145" data-name="Ellipse 145" cx="1.644" cy="1.644" r="1.644" transform="translate(0 73.961)" fill="#d9d9d9"/>
          <circle id="Ellipse_146" data-name="Ellipse 146" cx="1.644" cy="1.644" r="1.644" transform="translate(8.218 73.961)" fill="#d9d9d9"/>
          <circle id="Ellipse_147" data-name="Ellipse 147" cx="1.644" cy="1.644" r="1.644" transform="translate(16.436 73.961)" fill="#d9d9d9"/>
          <circle id="Ellipse_148" data-name="Ellipse 148" cx="1.644" cy="1.644" r="1.644" transform="translate(24.654 73.961)" fill="#d9d9d9"/>
          <circle id="Ellipse_149" data-name="Ellipse 149" cx="1.644" cy="1.644" r="1.644" transform="translate(32.872 73.961)" fill="#d9d9d9"/>
          <circle id="Ellipse_150" data-name="Ellipse 150" cx="1.644" cy="1.644" r="1.644" transform="translate(41.089 73.961)" fill="#d9d9d9"/>
          <circle id="Ellipse_151" data-name="Ellipse 151" cx="1.644" cy="1.644" r="1.644" transform="translate(49.307 73.961)" fill="#d9d9d9"/>
          <circle id="Ellipse_152" data-name="Ellipse 152" cx="1.644" cy="1.644" r="1.644" transform="translate(57.525 73.961)" fill="#d9d9d9"/>
          <circle id="Ellipse_153" data-name="Ellipse 153" cx="1.644" cy="1.644" r="1.644" transform="translate(65.743 73.961)" fill="#d9d9d9"/>
          <circle id="Ellipse_154" data-name="Ellipse 154" cx="1.644" cy="1.644" r="1.644" transform="translate(73.961 73.961)" fill="#d9d9d9"/>
          <circle id="Ellipse_155" data-name="Ellipse 155" cx="1.644" cy="1.644" r="1.644" transform="translate(82.179 73.961)" fill="#d9d9d9"/>
          <circle id="Ellipse_156" data-name="Ellipse 156" cx="1.644" cy="1.644" r="1.644" transform="translate(90.397 73.961)" fill="#d9d9d9"/>
          <circle id="Ellipse_157" data-name="Ellipse 157" cx="1.644" cy="1.644" r="1.644" transform="translate(98.615 73.961)" fill="#d9d9d9"/>
          <circle id="Ellipse_158" data-name="Ellipse 158" cx="1.644" cy="1.644" r="1.644" transform="translate(106.833 73.961)" fill="#d9d9d9"/>
          <circle id="Ellipse_159" data-name="Ellipse 159" cx="1.644" cy="1.644" r="1.644" transform="translate(115.05 73.961)" fill="#d9d9d9"/>
          <circle id="Ellipse_160" data-name="Ellipse 160" cx="1.644" cy="1.644" r="1.644" transform="translate(123.268 73.961)" fill="#d9d9d9"/>
          <circle id="Ellipse_161" data-name="Ellipse 161" cx="1.644" cy="1.644" r="1.644" transform="translate(0 82.179)" fill="#d9d9d9"/>
          <circle id="Ellipse_162" data-name="Ellipse 162" cx="1.644" cy="1.644" r="1.644" transform="translate(8.218 82.179)" fill="#d9d9d9"/>
          <circle id="Ellipse_163" data-name="Ellipse 163" cx="1.644" cy="1.644" r="1.644" transform="translate(16.436 82.179)" fill="#d9d9d9"/>
          <circle id="Ellipse_164" data-name="Ellipse 164" cx="1.644" cy="1.644" r="1.644" transform="translate(24.654 82.179)" fill="#d9d9d9"/>
          <circle id="Ellipse_165" data-name="Ellipse 165" cx="1.644" cy="1.644" r="1.644" transform="translate(32.872 82.179)" fill="#d9d9d9"/>
          <circle id="Ellipse_166" data-name="Ellipse 166" cx="1.644" cy="1.644" r="1.644" transform="translate(41.089 82.179)" fill="#d9d9d9"/>
          <circle id="Ellipse_167" data-name="Ellipse 167" cx="1.644" cy="1.644" r="1.644" transform="translate(49.307 82.179)" fill="#d9d9d9"/>
          <circle id="Ellipse_168" data-name="Ellipse 168" cx="1.644" cy="1.644" r="1.644" transform="translate(57.525 82.179)" fill="#d9d9d9"/>
          <circle id="Ellipse_169" data-name="Ellipse 169" cx="1.644" cy="1.644" r="1.644" transform="translate(65.743 82.179)" fill="#d9d9d9"/>
          <circle id="Ellipse_170" data-name="Ellipse 170" cx="1.644" cy="1.644" r="1.644" transform="translate(73.961 82.179)" fill="#d9d9d9"/>
          <circle id="Ellipse_171" data-name="Ellipse 171" cx="1.644" cy="1.644" r="1.644" transform="translate(82.179 82.179)" fill="#d9d9d9"/>
          <circle id="Ellipse_172" data-name="Ellipse 172" cx="1.644" cy="1.644" r="1.644" transform="translate(90.397 82.179)" fill="#d9d9d9"/>
          <circle id="Ellipse_173" data-name="Ellipse 173" cx="1.644" cy="1.644" r="1.644" transform="translate(98.615 82.179)" fill="#d9d9d9"/>
          <circle id="Ellipse_174" data-name="Ellipse 174" cx="1.644" cy="1.644" r="1.644" transform="translate(106.833 82.179)" fill="#d9d9d9"/>
          <circle id="Ellipse_175" data-name="Ellipse 175" cx="1.644" cy="1.644" r="1.644" transform="translate(115.05 82.179)" fill="#d9d9d9"/>
          <circle id="Ellipse_176" data-name="Ellipse 176" cx="1.644" cy="1.644" r="1.644" transform="translate(123.268 82.179)" fill="#d9d9d9"/>
          <circle id="Ellipse_177" data-name="Ellipse 177" cx="1.644" cy="1.644" r="1.644" transform="translate(0 90.397)" fill="#d9d9d9"/>
          <circle id="Ellipse_178" data-name="Ellipse 178" cx="1.644" cy="1.644" r="1.644" transform="translate(8.218 90.397)" fill="#d9d9d9"/>
          <circle id="Ellipse_179" data-name="Ellipse 179" cx="1.644" cy="1.644" r="1.644" transform="translate(16.436 90.397)" fill="#d9d9d9"/>
          <circle id="Ellipse_180" data-name="Ellipse 180" cx="1.644" cy="1.644" r="1.644" transform="translate(24.654 90.397)" fill="#d9d9d9"/>
          <circle id="Ellipse_181" data-name="Ellipse 181" cx="1.644" cy="1.644" r="1.644" transform="translate(32.872 90.397)" fill="#d9d9d9"/>
          <circle id="Ellipse_182" data-name="Ellipse 182" cx="1.644" cy="1.644" r="1.644" transform="translate(41.089 90.397)" fill="#d9d9d9"/>
          <circle id="Ellipse_183" data-name="Ellipse 183" cx="1.644" cy="1.644" r="1.644" transform="translate(49.307 90.397)" fill="#d9d9d9"/>
          <circle id="Ellipse_184" data-name="Ellipse 184" cx="1.644" cy="1.644" r="1.644" transform="translate(57.525 90.397)" fill="#d9d9d9"/>
          <circle id="Ellipse_185" data-name="Ellipse 185" cx="1.644" cy="1.644" r="1.644" transform="translate(65.743 90.397)" fill="#d9d9d9"/>
          <circle id="Ellipse_186" data-name="Ellipse 186" cx="1.644" cy="1.644" r="1.644" transform="translate(73.961 90.397)" fill="#d9d9d9"/>
          <circle id="Ellipse_187" data-name="Ellipse 187" cx="1.644" cy="1.644" r="1.644" transform="translate(82.179 90.397)" fill="#d9d9d9"/>
          <circle id="Ellipse_188" data-name="Ellipse 188" cx="1.644" cy="1.644" r="1.644" transform="translate(90.397 90.397)" fill="#d9d9d9"/>
          <circle id="Ellipse_189" data-name="Ellipse 189" cx="1.644" cy="1.644" r="1.644" transform="translate(98.615 90.397)" fill="#d9d9d9"/>
          <circle id="Ellipse_190" data-name="Ellipse 190" cx="1.644" cy="1.644" r="1.644" transform="translate(106.833 90.397)" fill="#d9d9d9"/>
          <circle id="Ellipse_191" data-name="Ellipse 191" cx="1.644" cy="1.644" r="1.644" transform="translate(115.05 90.397)" fill="#d9d9d9"/>
          <circle id="Ellipse_192" data-name="Ellipse 192" cx="1.644" cy="1.644" r="1.644" transform="translate(123.268 90.397)" fill="#d9d9d9"/>
          <circle id="Ellipse_193" data-name="Ellipse 193" cx="1.644" cy="1.644" r="1.644" transform="translate(0 98.615)" fill="#d9d9d9"/>
          <circle id="Ellipse_194" data-name="Ellipse 194" cx="1.644" cy="1.644" r="1.644" transform="translate(8.218 98.615)" fill="#d9d9d9"/>
          <circle id="Ellipse_195" data-name="Ellipse 195" cx="1.644" cy="1.644" r="1.644" transform="translate(16.436 98.615)" fill="#d9d9d9"/>
          <circle id="Ellipse_196" data-name="Ellipse 196" cx="1.644" cy="1.644" r="1.644" transform="translate(24.654 98.615)" fill="#d9d9d9"/>
          <circle id="Ellipse_197" data-name="Ellipse 197" cx="1.644" cy="1.644" r="1.644" transform="translate(32.872 98.615)" fill="#d9d9d9"/>
          <circle id="Ellipse_198" data-name="Ellipse 198" cx="1.644" cy="1.644" r="1.644" transform="translate(41.089 98.615)" fill="#d9d9d9"/>
          <circle id="Ellipse_199" data-name="Ellipse 199" cx="1.644" cy="1.644" r="1.644" transform="translate(49.307 98.615)" fill="#d9d9d9"/>
          <circle id="Ellipse_200" data-name="Ellipse 200" cx="1.644" cy="1.644" r="1.644" transform="translate(57.525 98.615)" fill="#d9d9d9"/>
          <circle id="Ellipse_201" data-name="Ellipse 201" cx="1.644" cy="1.644" r="1.644" transform="translate(65.743 98.615)" fill="#d9d9d9"/>
          <circle id="Ellipse_202" data-name="Ellipse 202" cx="1.644" cy="1.644" r="1.644" transform="translate(73.961 98.615)" fill="#d9d9d9"/>
          <circle id="Ellipse_203" data-name="Ellipse 203" cx="1.644" cy="1.644" r="1.644" transform="translate(82.179 98.615)" fill="#d9d9d9"/>
          <circle id="Ellipse_204" data-name="Ellipse 204" cx="1.644" cy="1.644" r="1.644" transform="translate(90.397 98.615)" fill="#d9d9d9"/>
          <circle id="Ellipse_205" data-name="Ellipse 205" cx="1.644" cy="1.644" r="1.644" transform="translate(98.615 98.615)" fill="#d9d9d9"/>
          <circle id="Ellipse_206" data-name="Ellipse 206" cx="1.644" cy="1.644" r="1.644" transform="translate(106.833 98.615)" fill="#d9d9d9"/>
          <circle id="Ellipse_207" data-name="Ellipse 207" cx="1.644" cy="1.644" r="1.644" transform="translate(115.05 98.615)" fill="#d9d9d9"/>
          <circle id="Ellipse_208" data-name="Ellipse 208" cx="1.644" cy="1.644" r="1.644" transform="translate(123.268 98.615)" fill="#d9d9d9"/>
          <circle id="Ellipse_209" data-name="Ellipse 209" cx="1.644" cy="1.644" r="1.644" transform="translate(0 106.833)" fill="#d9d9d9"/>
          <circle id="Ellipse_210" data-name="Ellipse 210" cx="1.644" cy="1.644" r="1.644" transform="translate(8.218 106.833)" fill="#d9d9d9"/>
          <circle id="Ellipse_211" data-name="Ellipse 211" cx="1.644" cy="1.644" r="1.644" transform="translate(16.436 106.833)" fill="#d9d9d9"/>
          <circle id="Ellipse_212" data-name="Ellipse 212" cx="1.644" cy="1.644" r="1.644" transform="translate(24.654 106.833)" fill="#d9d9d9"/>
          <circle id="Ellipse_213" data-name="Ellipse 213" cx="1.644" cy="1.644" r="1.644" transform="translate(32.872 106.833)" fill="#d9d9d9"/>
          <circle id="Ellipse_214" data-name="Ellipse 214" cx="1.644" cy="1.644" r="1.644" transform="translate(41.089 106.833)" fill="#d9d9d9"/>
          <circle id="Ellipse_215" data-name="Ellipse 215" cx="1.644" cy="1.644" r="1.644" transform="translate(49.307 106.833)" fill="#d9d9d9"/>
          <circle id="Ellipse_216" data-name="Ellipse 216" cx="1.644" cy="1.644" r="1.644" transform="translate(57.525 106.833)" fill="#d9d9d9"/>
          <circle id="Ellipse_217" data-name="Ellipse 217" cx="1.644" cy="1.644" r="1.644" transform="translate(65.743 106.833)" fill="#d9d9d9"/>
          <circle id="Ellipse_218" data-name="Ellipse 218" cx="1.644" cy="1.644" r="1.644" transform="translate(73.961 106.833)" fill="#d9d9d9"/>
          <circle id="Ellipse_219" data-name="Ellipse 219" cx="1.644" cy="1.644" r="1.644" transform="translate(82.179 106.833)" fill="#d9d9d9"/>
          <circle id="Ellipse_220" data-name="Ellipse 220" cx="1.644" cy="1.644" r="1.644" transform="translate(90.397 106.833)" fill="#d9d9d9"/>
          <circle id="Ellipse_221" data-name="Ellipse 221" cx="1.644" cy="1.644" r="1.644" transform="translate(98.615 106.833)" fill="#d9d9d9"/>
          <circle id="Ellipse_222" data-name="Ellipse 222" cx="1.644" cy="1.644" r="1.644" transform="translate(106.833 106.833)" fill="#d9d9d9"/>
          <circle id="Ellipse_223" data-name="Ellipse 223" cx="1.644" cy="1.644" r="1.644" transform="translate(115.05 106.833)" fill="#d9d9d9"/>
          <circle id="Ellipse_224" data-name="Ellipse 224" cx="1.644" cy="1.644" r="1.644" transform="translate(123.268 106.833)" fill="#d9d9d9"/>
        </g>
      </g>
      <rect id="Rectangle_1" data-name="Rectangle 1" width="279.756" height="44.339" rx="8" transform="translate(149.457 31)" fill="#d9d9d9"/>
      <rect id="Rectangle_2" data-name="Rectangle 2" width="330.429" height="60.174" rx="8" transform="translate(415.489 432.159)" fill="#d9d9d9"/>
    </g>
  </g>
</svg>
