<?xml version="1.0" encoding="iso-8859-1"?>
<!-- Generator: Adobe Illustrator 19.0.0, SVG Export Plug-In . SVG Version: 6.00 Build 0)  -->
<svg xmlns="http://www.w3.org/2000/svg" xmlns:xlink="http://www.w3.org/1999/xlink" version="1.1" id="Capa_1" x="0px" y="0px" viewBox="0 0 512 512" style="enable-background:new 0 0 512 512;" xml:space="preserve" width="512px" height="512px">
<g>
	<g>
		<path d="M133.928,149.771H115.73c2.738-20.265,13.942-21.282,19.098-21.752c5.15-0.469,9.094-4.787,9.094-9.959V88.135    c0-2.75-1.132-5.378-3.13-7.267c-1.999-1.889-4.681-2.864-7.432-2.717c-31.609,1.778-69.29,17.738-69.29,83.676v52.04    c0,8.687,7.067,15.754,15.755,15.754h54.103c8.687,0,15.754-7.067,15.754-15.754v-48.342    C149.682,156.838,142.615,149.771,133.928,149.771z M129.681,209.62H84.07v-47.794c0-46.01,20.461-58.859,39.852-62.487v10.515    c-13.392,4.076-28.804,16.113-28.804,49.915c0,5.523,4.478,10,10,10h24.563V209.62z" fill="#FFFFFF"/>
	</g>
</g>
<g>
	<g>
		<path d="M444.774,255.997h-48.692c-8.369,0-15.179,6.809-15.179,15.179v43.508c0,8.37,6.81,15.179,15.179,15.179h15.237    c-2.546,16.341-11.485,17.155-16.139,17.579c-5.15,0.469-9.094,4.787-9.094,9.959v26.933c0,2.75,1.132,5.378,3.131,7.267    c1.861,1.76,4.321,2.733,6.869,2.733c0.187,0,0.374-0.005,0.562-0.016c28.879-1.625,63.305-16.182,63.305-76.307v-46.835    C459.953,262.806,453.143,255.997,444.774,255.997z M439.953,318.011c0,39.702-17.161,51.483-33.866,55.011v-7.494h-0.001    c12.207-3.952,25.923-15.179,25.923-45.665c0-5.523-4.478-10-10-10h-21.106v-33.866h39.05V318.011z" fill="#FFFFFF"/>
	</g>
</g>
<g>
	<g>
		<path d="M351.919,255.997h-48.692c-8.37,0-15.179,6.809-15.179,15.179v43.508c0,8.37,6.81,15.179,15.179,15.179h15.238    c-2.545,16.34-11.484,17.155-16.139,17.579c-5.15,0.469-9.094,4.787-9.094,9.959v26.933c0,2.75,1.132,5.378,3.13,7.267    c1.862,1.76,4.322,2.733,6.87,2.733c0.187,0,0.374-0.005,0.562-0.016c28.879-1.625,63.304-16.182,63.304-76.307v-46.835    C367.098,262.806,360.288,255.997,351.919,255.997z M347.098,318.011c0,39.702-17.16,51.483-33.865,55.011v-7.495    c12.207-3.953,25.923-15.18,25.923-45.665c0-5.523-4.478-10-10-10h-21.107v-33.865h39.049V318.011z" fill="#FFFFFF"/>
	</g>
</g>
<g>
	<g>
		<path d="M452.333,190.499h-31.906c-5.522,0-10,4.477-10,10s4.478,10,10,10h31.906c21.872,0,39.667,17.794,39.667,39.667v148.667    c0,21.872-17.795,39.667-39.667,39.667h-77c-2.652,0-5.195,1.054-7.071,2.929l-35.929,35.929v-28.859c0-5.523-4.478-10-10-10    h-26.666c-21.872,0-39.667-17.794-39.667-39.667V250.165c0-21.872,17.795-39.667,39.667-39.667H333c5.522,0,10-4.477,10-10    c0-5.523-4.478-10-10-10h-37.333c-17.272,0-32.845,7.384-43.751,19.152v-44.128c0-8.687-7.067-15.754-15.754-15.754h-18.197    c2.737-20.263,13.941-21.281,19.098-21.75c5.15-0.469,9.094-4.787,9.094-9.959V88.135c0-2.75-1.132-5.378-3.13-7.267    c-1.999-1.889-4.692-2.867-7.432-2.717c-31.61,1.778-69.29,17.739-69.29,83.676v52.04c0,8.687,7.067,15.754,15.755,15.754h54.103    c1.262,0,2.484-0.165,3.661-0.447c-2.465,6.534-3.823,13.606-3.823,20.992v148.667c0,32.9,26.767,59.667,59.667,59.667h16.666v43    c0,4.044,2.437,7.691,6.173,9.239c1.237,0.513,2.537,0.762,3.825,0.762c2.603,0,5.16-1.017,7.073-2.929l50.071-50.071h72.857    c32.9,0,59.667-26.766,59.667-59.667V250.165C512,217.265,485.233,190.499,452.333,190.499z M231.916,209.62h-45.611v-47.794    c0-46.009,20.461-58.859,39.852-62.487v10.516c-13.392,4.075-28.804,16.112-28.804,49.914c0,5.523,4.478,10,10,10h24.563V209.62z" fill="#FFFFFF"/>
	</g>
</g>
<g>
	<g>
		<path d="M386.069,193.429c-1.859-1.86-4.439-2.93-7.069-2.93s-5.21,1.07-7.07,2.93c-1.86,1.86-2.93,4.44-2.93,7.07    s1.069,5.21,2.93,7.07c1.861,1.86,4.44,2.93,7.07,2.93s5.21-1.07,7.069-2.93c1.86-1.86,2.931-4.44,2.931-7.07    S387.93,195.289,386.069,193.429z" fill="#FFFFFF"/>
	</g>
</g>
<g>
	<g>
		<path d="M313.069,158.099c-1.859-1.87-4.429-2.93-7.069-2.93c-2.63,0-5.21,1.06-7.07,2.93c-1.86,1.85-2.93,4.43-2.93,7.07    c0,2.63,1.069,5.21,2.93,7.07c1.861,1.86,4.44,2.93,7.07,2.93c2.64,0,5.21-1.07,7.069-2.93c1.86-1.86,2.931-4.44,2.931-7.07    C316,162.529,314.93,159.949,313.069,158.099z" fill="#FFFFFF"/>
	</g>
</g>
<g>
	<g>
		<path d="M248.573,0.499H67.427C30.247,0.499,0,30.746,0,67.926v171.896c0,37.18,30.247,67.427,67.427,67.427h21.118l58.353,58.352    c1.913,1.914,4.471,2.93,7.073,2.93c1.288,0,2.588-0.25,3.825-0.762c3.736-1.548,6.173-5.194,6.173-9.239v-51.281H199    c5.522,0,10-4.477,10-10s-4.478-10-10-10h-45.031c-5.522,0-10,4.477-10,10v37.139l-44.21-44.21    c-1.876-1.875-4.419-2.929-7.071-2.929H67.427C41.275,287.249,20,265.973,20,239.822V67.926c0-26.151,21.275-47.427,47.427-47.427    h181.146c26.152,0,47.427,21.276,47.427,47.427v59.239c0,5.523,4.478,10,10,10c5.522,0,10-4.477,10-10V67.926    C316,30.746,285.753,0.499,248.573,0.499z" fill="#FFFFFF"/>
	</g>
</g>
<g>
</g>
<g>
</g>
<g>
</g>
<g>
</g>
<g>
</g>
<g>
</g>
<g>
</g>
<g>
</g>
<g>
</g>
<g>
</g>
<g>
</g>
<g>
</g>
<g>
</g>
<g>
</g>
<g>
</g>
</svg>
